<?xml version="1.0" standalone="no"?>
<!DOCTYPE svg PUBLIC "-//W3C//DTD SVG 1.1//EN" "http://www.w3.org/Graphics/SVG/1.1/DTD/svg11.dtd">
<svg xmlns="http://www.w3.org/2000/svg">
<defs >
<font id="AlumniSans" horiz-adv-x="358" ><font-face
    font-family="Alumni Sans Thin"
    units-per-em="1000"
    panose-1="0 0 0 0 0 0 0 0 0 0"
    ascent="900"
    descent="-300"
    alphabetic="0" />
<glyph unicode=" " horiz-adv-x="166" />
<glyph unicode="!" horiz-adv-x="219" d="M72 190L52 371L46 630H170L164 373L144 190H72ZM112 -7Q85 -7 67 10T48 52Q48 76 66 93T112 111Q139 111 157 94T176 52Q176 27 158 10T112 -7Z" />
<glyph unicode="&quot;" horiz-adv-x="347" d="M210 421L194 630H290L273 421H210ZM74 421L57 630H153L136 421H74Z" />
<glyph unicode="#" horiz-adv-x="719" d="M126 0L181 174H33L55 244H203L243 369L92 370L115 440H265L307 574H380L337 440H470L512 574H586L543 440H686L664 369H520L481 244H626L604 173H459L405 0H332L386 173L254 174L199 0H126ZM276 244H409L447 369H315L276 244Z" />
<glyph unicode="$" horiz-adv-x="359" d="M148 49Q78 49 53 88T28 198V234H137V174Q137 156 138 141T149 118T179 110Q198 110 206 117T217 137T219 160V198Q219 223 210 237T182 262T138 284Q112 294 89 308T53 346T39 407V436Q39 491 64 523T153 562L222 564Q286
558 310 524T335 422V385H231V442Q231 475 222 488T190 502Q165 502 157 489T149 457V419Q149 393 162 379T196 355T242 336Q267 326 288 313T322 277T335 216V186Q335 158 330 134T312 90T276 61T217 50L148 49ZM195 673H262L182 -66H115L195 673Z" />
<glyph unicode="%" horiz-adv-x="577" d="M83 0L406 591H490L166 0H83ZM218 203Q185 203 165 211T135 240T125 298V420Q125 438 129 456T153 486T214 499Q257 499 278 490T306 462T313 416V300Q313 260 303 239T272 211T218 203ZM218 240Q235 240 240 250T246
278V425Q246 442 241 452T218 462Q206 462 201 457T194 443T192 425V277Q192 268 193 260T200 246T218 240ZM357 88Q324 88 304 96T274 125T264 183V305Q264 323 268 341T292 371T353 384Q396 384 417 375T445 347T452 301V185Q452 145 442 124T411 96T357 88ZM357
125Q374 125 379 134T385 162V309Q385 327 380 337T357 347Q345 347 340 342T333 328T331 309V162Q331 153 332 144T339 130T357 125Z" />
<glyph unicode="&amp;" horiz-adv-x="463" d="M187 -4Q134 -4 99 16T47 73T29 161Q29 209 49 245T111 291Q100 310 93 335T87 392Q90 448 120 478T215 508Q246 508 276 504T329 494T361 485V402Q358 403 340 407T297 416T245 420Q222 420 209 410T192 384T191
350T205 315Q209 309 216 299T233 277T251 255T268 235T281 220L282 310H434V238H356Q356 220 356 207T354 182T352 158Q372 141 395 125T434 101V-2Q413 -1 379 18T314 64Q301 38 282 23T238 2T187 -4ZM192 74Q216 74 231 85T252 116Q223 145 196 175T150 231Q136
225 128 211T119 172Q117 125 137 100T192 74Z" />
<glyph unicode="&apos;" horiz-adv-x="210" d="M74 421L57 630H153L136 421H74Z" />
<glyph unicode="(" horiz-adv-x="336" d="M286 -119Q231 -118 185 -87T104 -3T52 114T33 250Q33 326 54 399T111 531T196 626T297 665V600Q259 590 230 558T180 478T150 374T139 257Q139 199 148 145T176 46T222 -25T286 -55V-119Z" />
<glyph unicode=")" horiz-adv-x="333" d="M36 -119V-55Q74 -44 103 -12T153 67T183 172T194 289Q194 347 185 401T157 499T111 570T47 601V665Q103 663 149 632T229 549T281 432T300 295Q300 220 280 147T222 15T137 -80T36 -119Z" />
<glyph unicode="*" horiz-adv-x="578" d="M187 85L100 150L245 294L40 316L78 433L258 329L220 532H332L297 330L478 430L513 322L310 294L458 151L368 88L279 270L187 85Z" />
<glyph unicode="+" horiz-adv-x="492" d="M186 71V211H50V330H186V469H305V330H442V211H305V71H186Z" />
<glyph unicode="," horiz-adv-x="223" d="M51 -147Q66 -114 77 -87T89 -37Q89 -18 81 -7T63 14T54 43Q54 65 71 81T115 98Q141 98 157 81T173 37Q173 10 162 -23T135 -89T101 -147H51Z" />
<glyph unicode="-" horiz-adv-x="280" d="M36 240V317H244V240H36Z" />
<glyph unicode="." horiz-adv-x="220" d="M109 -9Q85 -9 68 7T50 48Q50 72 67 88T109 105Q134 105 152 89T170 48Q170 24 152 8T109 -9Z" />
<glyph unicode="/" horiz-adv-x="493" d="M36 -45L378 630H459L117 -45H36Z" />
<glyph unicode="0" horiz-adv-x="393" d="M197 -13Q148 -12 111 7T52 70T31 186V426Q31 514 77 556T199 598Q271 598 316 556T362 426V187Q362 113 342 69T284 6T197 -13ZM197 56Q219 56 233 73T247 126V458Q247 493 233 510T197 528Q176 528 162 511T147 458V126Q147
91 161 74T197 56Z" />
<glyph unicode="1" horiz-adv-x="272" d="M114 0V448H13V514L41 515Q76 518 95 535T129 591H230V0H114Z" />
<glyph unicode="2" horiz-adv-x="388" d="M25 0Q25 30 25 60T25 120Q25 174 38 205T79 257T150 299Q185 316 205 333T234 373T244 434Q245 471 234 491T195 511Q168 511 157 488T145 418V377H29V451Q29 523 71 558T197 594Q260 594 297 577T349 524T365 429Q365
359 342 316T264 243Q240 231 219 219T183 193T160 157Q154 144 150 129T146 95H367V0H25Z" />
<glyph unicode="3" horiz-adv-x="387" d="M191 -7Q133 -7 95 10T39 60T21 139V207H137V170Q137 125 149 101T189 76Q215 76 227 97T240 151V208Q240 241 218 255T153 270H106V334H154Q174 334 190 339T217 353Q229 363 234 374T239 399V440Q239 469 228 490T189
511Q160 511 150 487T139 421V397H22V452Q22 522 63 558T191 594Q281 594 320 561T360 462V417Q360 366 335 335T260 298Q309 295 335 264T361 182V139Q361 89 344 57T290 9T191 -7Z" />
<glyph unicode="4" horiz-adv-x="387" d="M199 0V116H8V208L202 591H316V194H376V116H316V0H199ZM101 194H199V393L101 194Z" />
<glyph unicode="5" horiz-adv-x="392" d="M196 -8Q134 -8 97 4T43 51T26 149V200H142V159Q142 111 155 94T196 76Q223 76 234 95T246 161V258Q246 277 242 293T227 318T195 328Q173 328 160 315T142 279H27V591H353V508H142V362Q151 379 174 392T241 406Q307 406
336 379T366 286V146Q366 86 347 53T290 6T196 -8Z" />
<glyph unicode="6" horiz-adv-x="395" d="M196 -11Q143 -11 106 7T50 62T31 151V453Q31 525 76 560T197 596Q276 596 318 562T361 455V415H245V468Q245 499 233 512T198 525Q174 525 161 510T147 467V332Q163 355 190 365T247 376Q298 376 332 349T367 270V137Q367
92 347 59T289 7T196 -11ZM199 58Q221 58 236 72T251 119V251Q251 280 234 291T197 303Q177 303 163 292T147 261V119Q147 88 161 74T199 58Z" />
<glyph unicode="7" horiz-adv-x="327" d="M34 0L195 509H8V591H310V507L150 0H34Z" />
<glyph unicode="8" horiz-adv-x="387" d="M195 -8Q138 -8 100 9T44 60T26 140V176Q26 206 31 231T51 273Q62 286 83 296T140 310Q106 311 90 318T58 338Q41 355 36 383T31 442V465Q31 509 46 537T97 580T195 594Q257 594 292 580T343 538T359 465V442Q359 407
351 380T321 335T261 310Q296 307 316 294T346 262T358 220T361 175V139Q361 99 345 66T292 12T195 -8ZM193 59Q219 59 232 74T245 116V201Q245 227 233 243T193 260Q166 260 154 242T142 200V116Q142 91 154 75T193 59ZM193 348Q213 348 228 364T243 413V461Q243
490 232 510T193 531Q164 531 154 510T144 462V414Q144 392 150 377T168 355T193 348Z" />
<glyph unicode="9" horiz-adv-x="393" d="M195 -11Q116 -11 74 23T32 130V180H147V117Q147 87 159 74T195 60Q219 60 232 75T245 118V260Q230 237 203 227T146 216Q112 216 85 229T42 273T26 354V448Q26 494 46 527T104 578T196 596Q251 596 287 578T343 523T362
434V132Q362 60 317 25T195 -11ZM196 289Q216 289 230 300T245 331V466Q245 497 231 511T194 527Q172 527 157 513T142 466V341Q142 312 159 301T196 289Z" />
<glyph unicode=":" horiz-adv-x="220" d="M109 266Q85 266 68 282T50 323Q50 347 67 363T109 380Q134 380 152 364T170 323Q170 299 152 283T109 266ZM109 -9Q85 -9 68 7T50 48Q50 72 67 88T109 105Q134 105 152 89T170 48Q170 24 152 8T109 -9Z" />
<glyph unicode=";" horiz-adv-x="236" d="M64 -147Q79 -114 90 -87T102 -37Q102 -18 94 -7T76 14T67 43Q67 65 84 81T128 98Q154 98 170 81T186 37Q186 10 175 -23T148 -89T114 -147H64ZM112 266Q88 266 71 282T53 323Q53 347 70 363T112 380Q137 380 155 364T173
323Q173 299 155 283T112 266Z" />
<glyph unicode="&lt;" horiz-adv-x="322" d="M282 131L39 296V360L282 526V422L134 327L282 232V131Z" />
<glyph unicode="=" horiz-adv-x="442" d="M50 340V417H392V340H50ZM50 136V214H392V136H50Z" />
<glyph unicode="&gt;" horiz-adv-x="322" d="M39 131V235L188 330L39 425V526L282 361V297L39 131Z" />
<glyph unicode="?" horiz-adv-x="399" d="M118 160V283Q134 284 149 287T179 295Q196 300 211 311T236 341T246 386V434Q246 467 235 488T196 510Q169 510 159 490T149 438V383H33V451Q33 594 197 594Q260 594 297 578T350 528T366 435V408Q366 364 352 330T314
275T257 248Q248 246 239 246T219 245V160H118ZM166 -8Q141 -8 124 8T107 48Q107 72 124 89T166 106Q191 106 209 89T227 48Q227 25 209 9T166 -8Z" />
<glyph unicode="@" horiz-adv-x="739" d="M356 -67Q237 -67 170 -30T75 78T47 251Q47 413 122 502T362 593Q455 594 528 564T643 468T686 296Q686 219 668 168T617 90T544 63Q514 63 489 76T448 115T430 172L456 165Q439 119 410 100T336 80Q288 80 259 104T230
188Q230 215 237 236T270 275T350 307Q374 313 389 323T409 342Q412 349 413 356T415 370Q415 393 405 403T369 413Q341 413 330 401T318 362V332H240V366Q240 400 250 421T287 452T368 462Q423 462 452 451T492 416T503 356V184Q503 142 518 125T558 108Q576 108
592 124T617 178T627 283Q627 364 599 423T514 514T368 546Q280 546 222 518T136 425T107 249Q107 166 126 113T179 32T260 -7T366 -20Q386 -21 419 -18T489 -10T558 4T606 22V-24Q587 -32 551 -42T465 -60T356 -67ZM361 141Q384 141 396 151T414 174T420 197V280Q403
278 386 273T356 260Q340 252 330 244T315 225T310 195Q310 168 320 155T361 141Z" />
<glyph unicode="A" horiz-adv-x="392" d="M8 0L114 591H280L384 0H254L236 109H150L133 0H8ZM152 167H235L194 488L152 167Z" />
<glyph unicode="B" horiz-adv-x="406" d="M42 0V591H252Q308 591 337 565T367 491V424Q367 398 360 377T337 340Q326 329 309 323T276 316V315Q293 315 309 311T339 295Q356 282 366 260T376 204V123Q376 75 360 48T313 11T240 0H42ZM159 61H213Q228 61 237 66T252
87T258 131V201Q258 241 245 253T209 266H159V61ZM159 339H206Q229 339 242 355T256 411V470Q256 501 245 514T215 528H159V339Z" />
<glyph unicode="C" horiz-adv-x="397" d="M202 -12Q153 -12 116 -1T57 47T35 156V466Q35 519 56 548T116 588T203 600Q253 600 289 588T346 547T366 466V344H250V471Q250 495 244 507T228 524T203 528Q189 528 178 524T161 508T155 471V113Q155 90 161 78T178
61T203 56Q217 56 227 60T244 77T250 113V230H366V157Q366 84 346 48T290 0T202 -12Z" />
<glyph unicode="D" horiz-adv-x="408" d="M42 0V591H249Q291 591 318 579T359 543T373 481V127Q373 78 356 50T308 11T233 0H42ZM163 60H214Q234 60 245 72T257 117V468Q257 501 246 513T214 525H163V60Z" />
<glyph unicode="E" horiz-adv-x="334" d="M42 0V591H314V509H163V351H291V260H163V80H314V0H42Z" />
<glyph unicode="F" horiz-adv-x="329" d="M42 0V591H314V509H163V351H291V260H163V0H42Z" />
<glyph unicode="G" horiz-adv-x="398" d="M166 -11Q132 -11 103 0T54 43T35 141V465Q35 517 55 546T113 586T199 598Q248 598 285 587T344 546T366 465V382H253V471Q253 495 247 507T229 524T202 528Q187 528 176 524T158 508T151 471V113Q151 90 157 78T175 61T202
56Q225 56 239 70T253 113V231H205V297H366V0H279L273 46Q271 43 269 40T266 35Q256 18 233 4T166 -11Z" />
<glyph unicode="H" horiz-adv-x="413" d="M42 0V591H158V349H255V591H371V0H255V263H158V0H42Z" />
<glyph unicode="I" horiz-adv-x="200" d="M42 0V591H158V0H42Z" />
<glyph unicode="J" horiz-adv-x="244" d="M54 -1Q46 -1 31 -1T6 0V80H37Q67 79 77 90T88 132V591H204V146Q204 89 190 57T143 12T54 -1Z" />
<glyph unicode="K" horiz-adv-x="410" d="M276 0L163 307L274 591H398L277 307L402 0H276ZM42 0V591H158V0H42Z" />
<glyph unicode="L" horiz-adv-x="299" d="M42 0V591H157V80H291V0H42Z" />
<glyph unicode="M" horiz-adv-x="536" d="M42 0V591H187L268 209L350 591H494V0H392V442L307 0H228L144 442V0H42Z" />
<glyph unicode="N" horiz-adv-x="409" d="M42 0V591H143L266 233V591H368V0H267L144 334V0H42Z" />
<glyph unicode="O" horiz-adv-x="401" d="M199 -12Q150 -12 113 -1T56 47T35 156V466Q35 519 55 548T113 588T200 600Q248 600 285 588T344 547T366 466V157Q366 84 345 48T286 0T199 -12ZM199 56Q214 56 225 61T243 78T250 113V471Q250 493 244 505T226 523T199
528Q184 528 173 523T156 506T149 471V113Q149 91 155 79T173 61T199 56Z" />
<glyph unicode="P" horiz-adv-x="393" d="M42 0V591H252Q311 591 341 565T372 491V389Q372 349 362 315T326 259T251 238H163V0H42ZM163 302H208Q232 302 244 325T256 401V441Q256 488 246 508T217 528H163V302Z" />
<glyph unicode="Q" horiz-adv-x="406" d="M291 -124L225 -8Q219 -9 213 -9T200 -9Q152 -9 115 2T56 50T35 159V466Q35 519 56 548T117 588T206 600Q257 600 294 588T351 547T371 466V160Q371 99 357 66T315 15L368 -78L291 -124ZM205 59Q220 59 231 63T249 80T255
116V471Q255 495 249 507T232 524T205 528Q191 528 180 524T162 508T155 471V116Q155 93 161 80T179 63T205 59Z" />
<glyph unicode="R" horiz-adv-x="420" d="M42 0V591H258Q317 591 347 565T377 491V399Q377 352 352 320T274 283V283Q308 278 322 261T348 204L404 0H275L232 196Q226 220 219 236T197 253H163V0H42ZM163 334H211Q239 334 251 349T263 399V470Q263 502 252 515T218
528H163V334Z" />
<glyph unicode="S" horiz-adv-x="391" d="M192 -7Q139 -7 102 8T44 61T24 168V203Q55 203 85 203T145 203V158Q145 121 151 102T168 75T194 67Q217 67 230 83T244 148Q244 185 233 203T196 233T132 262Q97 277 74 298T40 351T29 429Q29 487 44 523T96 575T195
592Q275 592 317 558T360 454V383Q331 383 303 383T244 383V419Q244 464 234 482T196 500Q170 500 159 484T148 432Q148 399 161 381T196 353T241 334Q285 317 313 300T354 252T367 164Q367 100 346 63T285 9T192 -7Z" />
<glyph unicode="T" horiz-adv-x="318" d="M101 0V509H9V591H309V509H217V0H101Z" />
<glyph unicode="U" horiz-adv-x="407" d="M204 -12Q168 -12 138 -7T86 14T52 61T40 147V591H156V114Q156 93 162 81T180 64T204 60Q216 60 227 64T244 80T251 114V591H367V147Q367 94 355 62T322 14T270 -7T204 -12Z" />
<glyph unicode="V" horiz-adv-x="384" d="M110 0L13 591H133L193 123V123L255 591H371L273 0H110Z" />
<glyph unicode="W" horiz-adv-x="598" d="M103 0L13 591H133L189 150L251 591H347L408 150L465 591H584L495 0H360L299 343L239 0H103Z" />
<glyph unicode="X" horiz-adv-x="366" d="M10 0L97 304L15 591H131L183 394L234 591H356L272 304L354 0H238L184 197L133 0H10Z" />
<glyph unicode="Y" horiz-adv-x="361" d="M120 0V251L9 591H125L176 414L183 376L190 414L245 591H351L236 245V0H120Z" />
<glyph unicode="Z" horiz-adv-x="294" d="M14 0V74L148 509H24V591H281V533L139 82H281V0H14Z" />
<glyph unicode="[" horiz-adv-x="313" d="M43 -57V630H269V570H150V3H269V-57H43Z" />
<glyph unicode="\" horiz-adv-x="559" d="M379 -45L36 630H118L459 -45H379Z" />
<glyph unicode="]" horiz-adv-x="313" d="M43 -57V3H162V570H43V630H269V-57H43Z" />
<glyph unicode="^" horiz-adv-x="420" d="M36 495L182 701H239L384 495H291L211 613L131 495H36Z" />
<glyph unicode="_" horiz-adv-x="716" d="M36 -128V-70H680V-128H36Z" />
<glyph unicode="`" horiz-adv-x="197" d="M102 548L7 648H110L167 548H102Z" />
<glyph unicode="a" horiz-adv-x="370" d="M126 -8Q100 -8 78 -1T41 28T26 95V161Q26 208 53 237T140 288Q171 301 189 311T215 335T223 375V402Q223 418 218 426T204 439T182 443Q156 443 148 426T140 367V325H37V378Q37 415 47 443T89 488T182 505Q245 505 279
494T326 458T339 391V0H225V55Q217 26 189 9T126 -8ZM175 67Q202 67 212 87T223 145V272Q217 262 203 255T175 238Q156 225 146 212T136 174V123Q136 102 141 90T155 72T175 67Z" />
<glyph unicode="b" horiz-adv-x="380" d="M219 -7Q175 -7 152 10T121 44L118 0H37V630H151V456Q161 476 181 490T239 504Q270 504 295 495T335 459T350 384V145Q350 95 341 65T315 20T274 -1T219 -7ZM194 71Q211 71 220 76T232 95T236 130V376Q236 408 227 419T194
431Q171 431 161 418T151 378V133Q151 101 161 86T194 71Z" />
<glyph unicode="c" horiz-adv-x="366" d="M187 -8Q136 -8 101 3T47 48T29 152V370Q29 446 68 475T186 504Q264 504 303 477T342 377V304H227V383Q227 412 219 424T186 437Q162 437 153 425T143 383V115Q143 84 152 72T187 59Q210 59 218 71T227 115V200H342V152Q342
84 324 49T272 3T187 -8Z" />
<glyph unicode="d" horiz-adv-x="380" d="M159 -7Q127 -7 103 -1T62 22T37 68T29 145V386Q29 419 38 441T62 476T96 496T139 502Q179 502 199 490T228 461V630H342V0H265L253 47Q249 37 238 25T209 3T159 -7ZM185 58Q200 58 208 63T221 78T227 100T228 126V410Q227
415 223 420T209 429T186 433Q171 433 163 429T150 416T144 398T143 374V117Q143 100 145 87T157 66T185 58Z" />
<glyph unicode="e" horiz-adv-x="366" d="M188 -8Q136 -8 101 3T47 49T29 154V377Q29 450 68 477T186 504Q264 504 303 477T342 377V242H143V107Q143 77 152 65T187 53Q210 53 218 64T227 107V186H342V155Q342 85 324 50T272 4T188 -8ZM143 294H227V383Q227 412
219 424T186 436Q162 436 153 424T143 383V294Z" />
<glyph unicode="f" horiz-adv-x="248" d="M45 0V411H13V476H45V523Q45 558 54 580T78 613T113 628T153 632Q173 632 194 631T231 629T253 627V572Q243 574 230 575T199 576Q177 576 168 565T158 525V476H253V411H158V0H45Z" />
<glyph unicode="g" horiz-adv-x="376" d="M186 -119Q172 -119 152 -118T113 -115T80 -112T63 -109V-48Q76 -50 102 -52T146 -55Q162 -55 176 -53T202 -43T221 -21T228 18V89Q223 77 214 63T186 38T135 28Q111 28 92 33T59 54T37 99T29 177V379Q29 442 55 473T136
505Q168 505 187 497T219 475T238 441L223 439L240 495H342V74Q342 38 336 4T313 -58T267 -102T186 -119ZM184 96Q201 96 210 104T223 128T227 161V406Q225 411 220 416T207 425T183 429Q163 429 153 418T143 375V147Q143 130 147 120T157 104T171 98T184 96Z"
/>
<glyph unicode="h" horiz-adv-x="381" d="M37 0V630H144V442Q156 472 180 488T238 504Q286 504 310 488T342 443T351 373V0H237V366Q237 377 236 387T231 405T218 419T193 424Q179 424 170 420T157 411T151 402V0H37Z" />
<glyph unicode="i" horiz-adv-x="189" d="M37 0V495H151V0H37ZM94 550Q72 550 56 565T40 602Q40 624 56 639T94 654Q116 654 132 639T149 602Q149 581 133 566T94 550Z" />
<glyph unicode="j" horiz-adv-x="186" d="M-23 -112Q-29 -111 -42 -111T-60 -109V-48Q-52 -49 -40 -49T-21 -48Q7 -46 22 -32T37 7V495H151V40Q151 -27 127 -60T63 -104T-23 -112ZM93 550Q71 550 55 565T39 602Q39 624 55 639T93 654Q115 654 131 639T148 602Q148
581 132 566T93 550Z" />
<glyph unicode="k" horiz-adv-x="380" d="M248 0L158 287L259 495H372L267 285L371 0H248ZM37 0V632H151V0H37Z" />
<glyph unicode="l" horiz-adv-x="189" d="M37 0V632H151V0H37Z" />
<glyph unicode="m" horiz-adv-x="576" d="M37 0V495H134L144 436Q154 466 179 485T239 504Q295 504 319 480T346 410H334Q340 450 368 477T436 504Q500 504 522 473T545 379V0H431V371Q431 400 422 411T393 423Q376 423 364 414T348 391V0H234V374Q234 400 225
411T195 423Q178 423 168 416T151 397V0H37Z" />
<glyph unicode="n" horiz-adv-x="381" d="M37 0V495H134L144 437Q153 467 179 486T238 505Q286 505 310 489T342 443T351 373V0H237V366Q237 378 236 388T231 407T218 419T194 424Q182 424 173 420T159 409T151 398V0H37Z" />
<glyph unicode="o" horiz-adv-x="371" d="M186 -8Q136 -8 101 4T47 51T29 156V366Q29 443 68 473T186 504Q265 504 303 474T342 366V156Q342 87 325 52T272 5T186 -8ZM186 60Q208 60 218 72T228 118V378Q228 409 219 422T186 436Q164 436 154 423T143 378V118Q143
85 153 73T186 60Z" />
<glyph unicode="p" horiz-adv-x="380" d="M37 -116V495H150V456Q160 473 178 488T237 503Q272 503 297 492T336 455T350 385V145Q350 90 338 57T301 9T237 -6Q202 -6 182 6T151 35V-116H37ZM194 58Q209 58 217 62T229 75T235 93T236 117V373Q236 386 235 397T230
416T217 428T194 432Q180 432 172 428T159 416T153 399T151 383V114Q151 97 154 84T167 65T194 58Z" />
<glyph unicode="q" horiz-adv-x="380" d="M228 -116V47Q220 25 200 9T140 -8Q115 -8 95 -2T60 21T37 67T29 144V385Q29 418 38 440T62 475T96 495T139 501Q182 501 201 487T228 457L230 495H342V-116H228ZM186 57Q199 57 207 63T220 78T226 98T228 118V383Q228
390 227 399T221 415T209 427T186 432Q171 432 163 428T150 416T144 397T143 373V116Q143 103 144 93T149 74T162 62T186 57Z" />
<glyph unicode="r" horiz-adv-x="281" d="M37 0V495H134L144 436Q153 458 171 471T209 490Q242 504 278 497V409Q276 410 263 411T232 412T203 403Q178 394 165 372T151 319V0H37Z" />
<glyph unicode="s" horiz-adv-x="369" d="M182 -7Q120 -7 86 8T38 57T24 140V178H138V114Q138 82 147 69T181 55Q203 55 212 67T222 105V143Q222 167 213 181T185 204T137 226Q110 237 87 251T50 288T35 347V376Q35 438 69 470T192 503Q251 503 284 488T330 442T344
362V325H234V381Q234 414 225 427T193 441Q168 441 160 428T151 396V359Q151 334 164 320T200 297T247 278Q273 269 295 256T330 220T344 161V131Q344 86 330 55T280 9T182 -7Z" />
<glyph unicode="t" horiz-adv-x="277" d="M184 -3Q161 -3 138 1T97 16T68 49T57 107V428H10V485L67 495L83 586H171V495H265V428H171V127Q171 106 179 90T215 73Q228 73 245 74T265 76V7Q262 7 238 2T184 -3Z" />
<glyph unicode="u" horiz-adv-x="385" d="M147 -7Q99 -7 75 9T43 55T34 124V495H148V131Q148 116 150 103T162 82T191 74Q204 74 212 78T226 88T233 99V495H347V0H250L241 60Q233 32 208 13T147 -7Z" />
<glyph unicode="v" horiz-adv-x="365" d="M116 0L9 495H127L190 128H191L248 495H356L252 0H116Z" />
<glyph unicode="w" horiz-adv-x="585" d="M109 0L5 495H114L176 137L237 495H347L416 137L471 495H579L477 0H346L292 276L240 0H109Z" />
<glyph unicode="x" horiz-adv-x="345" d="M1 0L100 257L18 495H127L176 343L234 495H339L248 257L339 0H230L175 162L113 0H1Z" />
<glyph unicode="y" horiz-adv-x="349" d="M100 -117Q72 -117 46 -113T5 -104V-44Q11 -46 22 -48T47 -50Q60 -50 76 -46T99 -20Q101 -11 103 -1T103 23L2 495H120L180 109H181L241 495H349L253 43Q236 -42 199 -79T100 -117Z" />
<glyph unicode="z" horiz-adv-x="287" d="M10 0V44L148 421H23V495H277V446L143 78H277V0H10Z" />
<glyph unicode="{" horiz-adv-x="333" d="M281 -136Q201 -134 154 -113T86 -60T66 8Q66 45 77 70T103 115T129 152T141 190Q141 208 131 220T104 241T63 249V282Q83 283 99 291T127 315T138 349Q138 366 127 383T102 419T77 462T66 516Q66 556 85 588T151 641T281
665V604Q256 600 235 594T201 570T188 516Q188 487 196 465T215 425T234 387T243 341Q243 327 236 311T211 282T164 266Q199 262 221 246T243 195Q243 173 236 155T220 117T203 74T195 20Q195 -16 209 -36T243 -65T281 -76V-136Z" />
<glyph unicode="|" horiz-adv-x="287" d="M94 -240V630H193V-240H94Z" />
<glyph unicode="}" horiz-adv-x="333" d="M52 -136V-76Q70 -74 90 -66T124 -37T138 20Q138 51 131 74T114 116T97 154T89 195Q89 229 111 245T169 266Q139 269 122 281T97 310T90 341Q90 367 98 386T117 424T136 465T145 516Q145 552 133 569T99 593T52 604V665Q135
662 181 642T247 589T267 516Q267 486 256 462T231 419T206 383T195 349Q195 330 205 315T233 292T270 282V249Q248 249 230 241T202 221T192 190Q192 170 203 152T230 115T256 71T267 8Q267 -27 247 -59T180 -113T52 -136Z" />
<glyph unicode="~" horiz-adv-x="523" d="M359 508Q324 509 293 520T229 542T159 556Q131 558 114 543T95 508H36Q37 543 53 571T97 615T164 629Q198 629 228 618T290 597T354 585Q389 583 403 597T421 627H487Q486 577 466 551T417 516T359 508Z" />
<glyph unicode="&#xa0;" horiz-adv-x="166" />
<glyph unicode="&#xa1;" horiz-adv-x="219" d="M72 299H144L164 116L170 -141H46L52 118L72 299ZM112 496Q139 496 157 479T176 437Q176 413 158 396T112 378Q85 378 67 395T48 437Q48 462 66 479T112 496Z" />
<glyph unicode="&#xa2;" horiz-adv-x="366" d="M149 -65V49Q115 52 90 64T50 106T36 189V450Q36 489 50 512T89 547T149 561V648H222V558Q253 554 277 542T316 508T330 450V348H230V455Q230 476 224 485T207 499T183 503Q171 503 161 499T144 486T137 455V155Q137
134 143 124T160 110T183 106Q196 106 206 110T223 124T230 155V252H330V190Q330 141 316 112T277 70T222 52V-65H149Z" />
<glyph unicode="&#xa3;" horiz-adv-x="417" d="M29 0V46Q50 73 67 106T95 178T105 257H32V327H97Q91 352 82 377T65 428T57 482Q57 534 96 565T218 597Q293 597 337 567T381 469V423H280V470Q280 494 271 510T247 535T216 544Q192 544 175 530T158 488Q158 466
167 441T187 387T199 327H271V257H197Q194 218 182 182T155 118T125 74Q140 76 153 77T181 77T218 75Q258 73 270 83T282 130V172H381V119Q381 60 365 36T322 4Q292 -2 257 2T183 14T108 21Q75 21 57 14T29 0Z" />
<glyph unicode="&#xa4;" horiz-adv-x="521" d="M93 81L40 134L134 228Q123 245 117 263T111 301Q111 341 133 374L36 471L89 523L188 425Q221 443 259 443Q297 443 330 425L428 524L481 471L385 374Q407 341 407 301Q407 262 386 230L485 132L432 79L331 179Q313
170 295 165T259 160Q220 160 188 177L93 81ZM259 236Q286 236 305 255T324 300Q324 328 305 347T259 366Q231 366 213 348T194 300Q194 274 212 255T259 236Z" />
<glyph unicode="&#xa5;" horiz-adv-x="387" d="M133 0V125H44V181H133V242H44V298H118L22 591H138L196 398L258 591H365L266 298H329V242H249V181H329V125H249V0H133Z" />
<glyph unicode="&#xa6;" horiz-adv-x="230" d="M66 -167V177H165V-167H66ZM66 270V585H165V270H66Z" />
<glyph unicode="&#xa7;" horiz-adv-x="446" d="M197 -149Q144 -149 107 -134T51 -81T32 27V49H153V7Q153 -30 159 -50T175 -77T201 -85Q224 -85 237 -68T251 -4Q251 34 240 54T205 87T142 115Q105 130 81 148T45 192T33 255Q33 304 48 333T90 378T148 404L169
365Q154 352 143 332T132 277Q132 249 143 232T177 202T236 176Q268 163 292 153T333 129T358 91T367 23Q367 -41 346 -79T287 -133T197 -149ZM292 28L254 83Q280 99 297 118T314 179Q314 217 293 237T238 271T163 301Q131 316 110 331T78 370T67 434Q67 492 82
528T134 580T234 597Q314 597 356 562T399 459V408H283V469Q283 497 273 512T235 528Q208 528 198 512T187 460Q187 420 199 399T234 368T286 346Q330 330 358 314T400 270T414 189Q414 141 397 109T352 58T292 28Z" />
<glyph unicode="&#xa8;" horiz-adv-x="235" d="M48 549Q27 549 14 562T0 595Q0 614 13 626T48 639Q68 639 81 627T94 595Q94 575 81 562T48 549ZM168 549Q148 549 134 562T120 595Q120 614 134 626T168 639Q188 639 201 627T215 595Q215 575 202 562T168 549Z" />
<glyph unicode="&#xa9;" horiz-adv-x="600" d="M313 30Q255 30 204 51T115 112T55 202T33 311Q33 369 54 420T114 509T204 569T313 591Q371 591 422 570T511 510T571 420T593 311Q593 253 572 202T512 112T422 52T313 30ZM313 74Q362 74 405 92T480 144T530 220T548
311Q548 376 517 429T432 515T313 547Q265 547 223 529T148 478T97 403T78 311Q78 263 96 220T147 144T222 93T313 74ZM315 150Q280 150 256 157T219 188T207 256V399Q207 450 233 469T314 488Q368 488 394 470T421 404V356H344V409Q344 427 338 435T314 443Q297
443 291 435T284 409V231Q284 211 290 204T315 196Q331 196 337 203T344 231V288H421V257Q421 211 409 188T373 158T315 150Z" />
<glyph unicode="&#xaa;" horiz-adv-x="236" d="M86 259Q71 259 58 263T35 281T26 321V361Q26 389 43 406T95 437Q123 449 134 457T145 489V505Q145 519 138 524T120 530Q105 530 100 520T95 485V459H33V491Q33 513 39 530T64 557T120 567Q158 567 178 560T207
538T215 499V264H146V296Q141 280 124 270T86 259ZM116 304Q132 304 138 316T144 351V427Q141 421 133 417T116 406Q105 399 99 391T93 368V338Q93 325 96 318T104 307T116 304Z" />
<glyph unicode="&#xab;" horiz-adv-x="524" d="M382 103L251 292L385 485H488L354 292L485 103H382ZM167 103L36 292L170 485H273L140 292L270 103H167Z" />
<glyph unicode="&#xac;" horiz-adv-x="558" d="M447 131V324H40V407H522V131H447Z" />
<glyph unicode="&#xad;" horiz-adv-x="95" />
<glyph unicode="&#xae;" horiz-adv-x="384" d="M192 279Q149 279 114 300T57 356T36 435Q36 478 57 513T113 570T192 591Q236 591 271 570T327 514T348 435Q348 392 327 357T271 300T192 279ZM192 305Q228 305 257 323T304 370T321 435Q321 471 304 500T258 547T192
564Q157 564 128 547T82 501T64 435Q64 400 81 371T128 323T192 305ZM141 357V520H202Q228 520 236 510T245 480Q245 462 239 449T213 433Q216 432 218 428T221 421L254 357H223Q218 369 212 382T200 408T189 430H167V357H141ZM167 446H190Q207 446 214 454T221
478Q221 489 217 496T197 503H167V446Z" />
<glyph unicode="&#xaf;" horiz-adv-x="226" d="M10 560V618H216V560H10Z" />
<glyph unicode="&#xb0;" horiz-adv-x="329" d="M164 341Q98 341 67 377T36 465Q36 517 65 554T166 591Q214 591 242 574T281 529T293 467Q293 412 262 377T164 341ZM165 392Q196 392 214 412T233 466Q233 496 216 518T164 541Q133 541 115 519T97 465Q97 433 116
413T165 392Z" />
<glyph unicode="&#xb1;" horiz-adv-x="423" d="M172 162V302H36V380H172V519H251V380H387V302H251V162H172ZM36 0V74H387V0H36Z" />
<glyph unicode="&#xb2;" horiz-adv-x="251" d="M26 237V287Q26 336 39 362T97 410Q134 428 146 445T159 494Q159 517 153 530T128 543Q112 543 104 532T95 495V456H25V484Q25 545 50 569T130 594Q174 594 196 582T226 549T234 503Q234 465 225 442T198 405T159
378Q124 358 111 347T94 323Q91 316 91 309T90 296H233V237H26Z" />
<glyph unicode="&#xb3;" horiz-adv-x="251" d="M123 236Q67 236 41 259T14 324V365H89V344Q89 320 96 305T122 289Q140 289 148 301T156 332V366Q156 384 143 392T100 401H69V441H100Q130 441 143 451T156 478V503Q156 519 149 531T123 544Q103 544 97 529T90
490V477H15V511Q15 553 42 575T123 597Q187 597 209 576T232 518V489Q232 460 216 441T169 418Q200 417 216 399T233 350V324Q233 281 210 259T123 236Z" />
<glyph unicode="&#xb4;" horiz-adv-x="186" d="M0 548L57 648H160L65 548H0Z" />
<glyph unicode="&#xb5;" horiz-adv-x="385" d="M36 -129V495H150V100Q155 87 166 80T194 73Q207 73 216 77T230 93T235 126V495H349V124Q349 80 340 51T307 7T238 -7Q206 -7 180 11T143 60L133 -129H36Z" />
<glyph unicode="&#xb6;" horiz-adv-x="600" d="M189 -60V207Q143 207 111 229T61 293T43 397Q43 454 58 490T100 547T157 576T219 585H383V-60H334V507H282V-60H189Z" />
<glyph unicode="&#xb7;" horiz-adv-x="220" d="M109 226Q85 226 68 242T50 283Q50 307 67 323T109 340Q134 340 152 324T170 283Q170 259 152 243T109 226Z" />
<glyph unicode="&#xb8;" horiz-adv-x="202" d="M59 -161Q40 -161 24 -154T0 -143L14 -107Q21 -112 33 -116T54 -120Q70 -120 78 -113T86 -93Q86 -83 80 -78T63 -72Q57 -72 52 -74T43 -79L11 -62L43 0H86L60 -52L53 -49Q60 -45 69 -43T91 -40Q118 -40 133 -57T149
-94Q149 -122 126 -141T59 -161Z" />
<glyph unicode="&#xb9;" horiz-adv-x="173" d="M70 236V498L15 488V529Q46 540 65 554T101 591H140V236H70Z" />
<glyph unicode="&#xba;" horiz-adv-x="227" d="M114 266Q84 266 63 273T30 302T19 364V491Q19 536 42 554T114 573Q161 573 184 555T208 491V365Q208 323 197 302T165 274T114 266ZM114 307Q127 307 133 314T139 341V498Q139 517 133 524T114 532Q100 532 94 525T88
498V341Q88 322 94 315T114 307Z" />
<glyph unicode="&#xbb;" horiz-adv-x="524" d="M255 103L385 292L251 485H354L488 292L357 103H255ZM40 103L170 292L36 485H139L273 292L142 103H40Z" />
<glyph unicode="&#xbc;" horiz-adv-x="568" d="M70 236V498L15 488V529Q46 540 65 554T101 591H140V236H70ZM64 0L385 589H467L146 0H64ZM442 0V70H309V116L450 355H513V119H552V70H513V0H442ZM375 119H442V237L375 119Z" />
<glyph unicode="&#xbd;" horiz-adv-x="607" d="M70 236V498L15 488V529Q46 540 65 554T101 591H140V236H70ZM64 0L385 589H467L146 0H64ZM369 0V50Q369 99 382 125T440 173Q477 191 489 208T502 257Q502 280 496 293T471 306Q455 306 447 295T438 258V219H368V247Q368
308 393 332T473 357Q517 357 539 345T569 312T577 266Q577 228 568 205T541 168T502 141Q467 121 454 110T437 86Q434 79 434 72T433 59H576V0H369Z" />
<glyph unicode="&#xbe;" horiz-adv-x="614" d="M123 236Q67 236 41 259T14 324V365H89V344Q89 320 96 305T122 289Q140 289 148 301T156 332V366Q156 384 143 392T100 401H69V441H100Q130 441 143 451T156 478V503Q156 519 149 531T123 544Q103 544 97 529T90
490V477H15V511Q15 553 42 575T123 597Q187 597 209 576T232 518V489Q232 460 216 441T169 418Q200 417 216 399T233 350V324Q233 281 210 259T123 236ZM121 0L442 589H524L203 0H121ZM480 2V72H347V118L488 357H551V121H590V72H551V2H480ZM413 121H480V239L413
121Z" />
<glyph unicode="&#xbf;" horiz-adv-x="399" d="M281 329V206Q265 205 250 203T221 194Q204 189 189 178T163 148T153 103V55Q153 22 164 1T203 -21Q231 -21 241 -1T251 51V106H367V38Q367 -105 202 -105Q140 -105 103 -89T49 -39T33 54V81Q34 126 48 159T86 214T142
241Q152 243 161 243T181 244V329H281ZM233 497Q258 497 275 481T292 441Q292 417 275 400T233 383Q208 383 190 400T172 441Q172 464 190 480T233 497Z" />
<glyph unicode="&#xc0;" horiz-adv-x="392" d="M8 0L114 591H280L384 0H254L236 109H150L133 0H8ZM152 167H235L194 488L152 167ZM182 634L71 725H178L254 634H182Z" />
<glyph unicode="&#xc1;" horiz-adv-x="392" d="M8 0L114 591H280L384 0H254L236 109H150L133 0H8ZM152 167H235L194 488L152 167ZM137 634L215 728H320L201 634H137Z" />
<glyph unicode="&#xc2;" horiz-adv-x="392" d="M8 0L114 591H280L384 0H254L236 109H150L133 0H8ZM152 167H235L194 488L152 167ZM68 631L164 731H228L325 631H246L197 674L148 631H68Z" />
<glyph unicode="&#xc3;" horiz-adv-x="392" d="M8 0L114 591H280L384 0H254L236 109H150L133 0H8ZM152 167H235L194 488L152 167ZM239 637Q224 637 211 642T184 656Q174 663 163 668T140 673Q127 673 120 664T111 638H77Q78 677 95 701T141 726Q157 726 171 721T197
707Q208 701 218 696T240 691Q254 691 261 700T271 723H308Q308 695 298 676T271 647T239 637Z" />
<glyph unicode="&#xc4;" horiz-adv-x="392" d="M8 0L114 591H280L384 0H254L236 109H150L133 0H8ZM152 167H235L194 488L152 167ZM137 634Q116 634 103 647T89 680Q89 699 102 711T137 724Q157 724 170 712T183 680Q183 660 170 647T137 634ZM257 634Q237 634
223 647T209 680Q209 699 223 711T257 724Q277 724 290 712T304 680Q304 660 291 647T257 634Z" />
<glyph unicode="&#xc5;" horiz-adv-x="392" d="M8 0L114 591H280L384 0H254L236 109H150L133 0H8ZM152 167H235L194 488L152 167ZM196 592Q159 592 135 616T110 673Q110 708 134 732T196 756Q233 756 258 732T283 673Q283 640 258 616T196 592ZM196 638Q213 638
224 648T235 673Q235 691 224 701T196 711Q180 711 169 701T158 673Q158 658 169 648T196 638Z" />
<glyph unicode="&#xc6;" horiz-adv-x="550" d="M1 0L178 591H518V509H347L350 351H501V260H351L353 80H530V0H226V109H156L126 0H1ZM165 167H234L245 467L246 488L242 468L165 167Z" />
<glyph unicode="&#xc7;" horiz-adv-x="397" d="M202 -12Q153 -12 116 -1T57 47T35 156V466Q35 519 56 548T116 588T203 600Q253 600 289 588T346 547T366 466V344H250V471Q250 495 244 507T228 524T203 528Q189 528 178 524T161 508T155 471V113Q155 90 161 78T178
61T203 56Q217 56 227 60T244 77T250 113V230H366V157Q366 84 346 48T290 0T202 -12ZM194 -161Q175 -161 159 -154T135 -143L149 -107Q156 -112 168 -116T189 -120Q205 -120 213 -113T221 -93Q221 -83 215 -78T198 -72Q192 -72 187 -74T178 -79L146 -62L178 0H221L195
-52L188 -49Q195 -45 204 -43T226 -40Q253 -40 268 -57T284 -94Q284 -122 261 -141T194 -161Z" />
<glyph unicode="&#xc8;" horiz-adv-x="334" d="M42 0V591H314V509H163V351H291V260H163V80H314V0H42ZM163 634L52 725H159L235 634H163Z" />
<glyph unicode="&#xc9;" horiz-adv-x="334" d="M42 0V591H314V509H163V351H291V260H163V80H314V0H42ZM118 634L196 728H301L182 634H118Z" />
<glyph unicode="&#xca;" horiz-adv-x="334" d="M42 0V591H314V509H163V351H291V260H163V80H314V0H42ZM49 631L145 731H209L306 631H227L178 674L129 631H49Z" />
<glyph unicode="&#xcb;" horiz-adv-x="334" d="M42 0V591H314V509H163V351H291V260H163V80H314V0H42ZM118 634Q97 634 84 647T70 680Q70 699 83 711T118 724Q138 724 151 712T164 680Q164 660 151 647T118 634ZM238 634Q218 634 204 647T190 680Q190 699 204 711T238
724Q258 724 271 712T285 680Q285 660 272 647T238 634Z" />
<glyph unicode="&#xcc;" horiz-adv-x="200" d="M42 0V591H158V0H42ZM342 634L231 725H338L414 634H342Z" />
<glyph unicode="&#xcd;" horiz-adv-x="200" d="M42 0V591H158V0H42ZM41 634L119 728H224L105 634H41Z" />
<glyph unicode="&#xce;" horiz-adv-x="200" d="M42 0V591H158V0H42ZM228 631L324 731H388L485 631H406L357 674L308 631H228Z" />
<glyph unicode="&#xcf;" horiz-adv-x="200" d="M42 0V591H158V0H42ZM297 634Q276 634 263 647T249 680Q249 699 262 711T297 724Q317 724 330 712T343 680Q343 660 330 647T297 634ZM417 634Q397 634 383 647T369 680Q369 699 383 711T417 724Q437 724 450 712T464
680Q464 660 451 647T417 634Z" />
<glyph unicode="&#xd0;" horiz-adv-x="441" d="M60 0V591H282Q324 591 351 579T392 543T406 481V127Q406 78 389 50T341 11T266 0H60ZM12 256V324H220V256H12ZM180 60H239Q265 60 277 72T290 117V468Q290 501 278 513T239 525H180V60Z" />
<glyph unicode="&#xd1;" horiz-adv-x="409" d="M42 0V591H143L266 233V591H368V0H267L144 334V0H42ZM251 637Q236 637 223 642T196 656Q186 663 175 668T152 673Q139 673 132 664T123 638H89Q90 677 107 701T153 726Q169 726 183 721T209 707Q220 701 230 696T252
691Q266 691 273 700T283 723H320Q320 695 310 676T283 647T251 637Z" />
<glyph unicode="&#xd2;" horiz-adv-x="401" d="M199 -12Q150 -12 113 -1T56 47T35 156V466Q35 519 55 548T113 588T200 600Q248 600 285 588T344 547T366 466V157Q366 84 345 48T286 0T199 -12ZM199 56Q214 56 225 61T243 78T250 113V471Q250 493 244 505T226
523T199 528Q184 528 173 523T156 506T149 471V113Q149 91 155 79T173 61T199 56ZM187 634L76 725H183L259 634H187Z" />
<glyph unicode="&#xd3;" horiz-adv-x="401" d="M199 -12Q150 -12 113 -1T56 47T35 156V466Q35 519 55 548T113 588T200 600Q248 600 285 588T344 547T366 466V157Q366 84 345 48T286 0T199 -12ZM199 56Q214 56 225 61T243 78T250 113V471Q250 493 244 505T226
523T199 528Q184 528 173 523T156 506T149 471V113Q149 91 155 79T173 61T199 56ZM141 634L219 728H324L205 634H141Z" />
<glyph unicode="&#xd4;" horiz-adv-x="401" d="M199 -12Q150 -12 113 -1T56 47T35 156V466Q35 519 55 548T113 588T200 600Q248 600 285 588T344 547T366 466V157Q366 84 345 48T286 0T199 -12ZM199 56Q214 56 225 61T243 78T250 113V471Q250 493 244 505T226
523T199 528Q184 528 173 523T156 506T149 471V113Q149 91 155 79T173 61T199 56ZM73 631L169 731H233L330 631H251L202 674L153 631H73Z" />
<glyph unicode="&#xd5;" horiz-adv-x="401" d="M199 -12Q150 -12 113 -1T56 47T35 156V466Q35 519 55 548T113 588T200 600Q248 600 285 588T344 547T366 466V157Q366 84 345 48T286 0T199 -12ZM199 56Q214 56 225 61T243 78T250 113V471Q250 493 244 505T226
523T199 528Q184 528 173 523T156 506T149 471V113Q149 91 155 79T173 61T199 56ZM244 637Q229 637 216 642T189 656Q179 663 168 668T145 673Q132 673 125 664T116 638H82Q83 677 100 701T146 726Q162 726 176 721T202 707Q213 701 223 696T245 691Q259 691 266
700T276 723H313Q313 695 303 676T276 647T244 637Z" />
<glyph unicode="&#xd6;" horiz-adv-x="401" d="M199 -12Q150 -12 113 -1T56 47T35 156V466Q35 519 55 548T113 588T200 600Q248 600 285 588T344 547T366 466V157Q366 84 345 48T286 0T199 -12ZM199 56Q214 56 225 61T243 78T250 113V471Q250 493 244 505T226
523T199 528Q184 528 173 523T156 506T149 471V113Q149 91 155 79T173 61T199 56ZM141 634Q120 634 107 647T93 680Q93 699 106 711T141 724Q161 724 174 712T187 680Q187 660 174 647T141 634ZM261 634Q241 634 227 647T213 680Q213 699 227 711T261 724Q281 724
294 712T308 680Q308 660 295 647T261 634Z" />
<glyph unicode="&#xd7;" horiz-adv-x="389" d="M299 103L195 206L94 106L38 161L139 262L36 364L92 420L195 317L296 419L351 363L251 262L353 158L299 103Z" />
<glyph unicode="&#xd8;" horiz-adv-x="416" d="M16 -35L350 627H403L68 -35H16ZM206 -12Q156 -12 119 -1T60 47T38 156V466Q38 519 59 548T119 588T206 600Q257 600 293 588T349 547T369 466V157Q369 84 349 48T293 0T206 -12ZM206 56Q220 56 230 60T247 77T253
113V471Q253 495 247 507T231 524T206 528Q192 528 182 524T165 508T159 471V113Q159 90 165 78T181 61T206 56Z" />
<glyph unicode="&#xd9;" horiz-adv-x="407" d="M204 -12Q168 -12 138 -7T86 14T52 61T40 147V591H156V114Q156 93 162 81T180 64T204 60Q216 60 227 64T244 80T251 114V591H367V147Q367 94 355 62T322 14T270 -7T204 -12ZM189 634L78 725H185L261 634H189Z" />
<glyph unicode="&#xda;" horiz-adv-x="407" d="M204 -12Q168 -12 138 -7T86 14T52 61T40 147V591H156V114Q156 93 162 81T180 64T204 60Q216 60 227 64T244 80T251 114V591H367V147Q367 94 355 62T322 14T270 -7T204 -12ZM144 634L222 728H327L208 634H144Z" />
<glyph unicode="&#xdb;" horiz-adv-x="407" d="M204 -12Q168 -12 138 -7T86 14T52 61T40 147V591H156V114Q156 93 162 81T180 64T204 60Q216 60 227 64T244 80T251 114V591H367V147Q367 94 355 62T322 14T270 -7T204 -12ZM75 631L171 731H235L332 631H253L204
674L155 631H75Z" />
<glyph unicode="&#xdc;" horiz-adv-x="407" d="M204 -12Q168 -12 138 -7T86 14T52 61T40 147V591H156V114Q156 93 162 81T180 64T204 60Q216 60 227 64T244 80T251 114V591H367V147Q367 94 355 62T322 14T270 -7T204 -12ZM144 634Q123 634 110 647T96 680Q96 699
109 711T144 724Q164 724 177 712T190 680Q190 660 177 647T144 634ZM264 634Q244 634 230 647T216 680Q216 699 230 711T264 724Q284 724 297 712T311 680Q311 660 298 647T264 634Z" />
<glyph unicode="&#xdd;" horiz-adv-x="361" d="M120 0V251L9 591H125L176 414L183 376L190 414L245 591H351L236 245V0H120ZM126 634L204 728H309L190 634H126Z" />
<glyph unicode="&#xde;" horiz-adv-x="395" d="M33 0V591H154V488H243Q302 488 332 462T362 388V285Q362 245 353 211T317 156T242 134H154V0H33ZM154 198H199Q223 198 235 221T247 297V337Q247 385 238 405T208 425H154V198Z" />
<glyph unicode="&#xdf;" horiz-adv-x="451" d="M15 -147Q4 -147 -15 -146T-43 -143V-78Q-39 -79 -36 -79T-29 -80Q-24 -81 -17 -81T1 -82Q38 -82 50 -61T62 -11V416H22V495H62V522Q62 560 74 584T125 619T235 631Q320 631 365 610T410 533V438Q410 396 387 370T335
342V338Q357 336 377 325T412 294T426 244V121Q426 69 405 43T347 9T260 0H205V59H244Q266 59 278 67T295 98T300 167V239Q300 261 294 275T275 297T236 305H209L210 365H253Q281 365 289 384T297 438V498Q297 539 286 557T236 575Q210 575 197 566T180 542T176
508L177 8Q177 -40 163 -70T125 -117T73 -140T15 -147Z" />
<glyph unicode="&#xe0;" horiz-adv-x="370" d="M126 -8Q100 -8 78 -1T41 28T26 95V161Q26 208 53 237T140 288Q171 301 189 311T215 335T223 375V402Q223 418 218 426T204 439T182 443Q156 443 148 426T140 367V325H37V378Q37 415 47 443T89 488T182 505Q245 505
279 494T326 458T339 391V0H225V55Q217 26 189 9T126 -8ZM175 67Q202 67 212 87T223 145V272Q217 262 203 255T175 238Q156 225 146 212T136 174V123Q136 102 141 90T155 72T175 67ZM173 548L78 648H181L238 548H173Z" />
<glyph unicode="&#xe1;" horiz-adv-x="370" d="M126 -8Q100 -8 78 -1T41 28T26 95V161Q26 208 53 237T140 288Q171 301 189 311T215 335T223 375V402Q223 418 218 426T204 439T182 443Q156 443 148 426T140 367V325H37V378Q37 415 47 443T89 488T182 505Q245 505
279 494T326 458T339 391V0H225V55Q217 26 189 9T126 -8ZM175 67Q202 67 212 87T223 145V272Q217 262 203 255T175 238Q156 225 146 212T136 174V123Q136 102 141 90T155 72T175 67ZM146 548L203 648H306L211 548H146Z" />
<glyph unicode="&#xe2;" horiz-adv-x="370" d="M126 -8Q100 -8 78 -1T41 28T26 95V161Q26 208 53 237T140 288Q171 301 189 311T215 335T223 375V402Q223 418 218 426T204 439T182 443Q156 443 148 426T140 367V325H37V378Q37 415 47 443T89 488T182 505Q245 505
279 494T326 458T339 391V0H225V55Q217 26 189 9T126 -8ZM175 67Q202 67 212 87T223 145V272Q217 262 203 255T175 238Q156 225 146 212T136 174V123Q136 102 141 90T155 72T175 67ZM62 546L157 651H221L316 546H241L190 595L139 546H62Z" />
<glyph unicode="&#xe3;" horiz-adv-x="370" d="M126 -8Q100 -8 78 -1T41 28T26 95V161Q26 208 53 237T140 288Q171 301 189 311T215 335T223 375V402Q223 418 218 426T204 439T182 443Q156 443 148 426T140 367V325H37V378Q37 415 47 443T89 488T182 505Q245 505
279 494T326 458T339 391V0H225V55Q217 26 189 9T126 -8ZM175 67Q202 67 212 87T223 145V272Q217 262 203 255T175 238Q156 225 146 212T136 174V123Q136 102 141 90T155 72T175 67ZM236 551Q221 551 208 556T181 570Q171 577 160 582T137 587Q124 587 117 578T108
552H74Q75 591 92 615T138 640Q154 640 168 635T194 621Q205 615 215 610T237 605Q251 605 258 614T268 637H305Q305 609 295 590T268 561T236 551Z" />
<glyph unicode="&#xe4;" horiz-adv-x="370" d="M126 -8Q100 -8 78 -1T41 28T26 95V161Q26 208 53 237T140 288Q171 301 189 311T215 335T223 375V402Q223 418 218 426T204 439T182 443Q156 443 148 426T140 367V325H37V378Q37 415 47 443T89 488T182 505Q245 505
279 494T326 458T339 391V0H225V55Q217 26 189 9T126 -8ZM175 67Q202 67 212 87T223 145V272Q217 262 203 255T175 238Q156 225 146 212T136 174V123Q136 102 141 90T155 72T175 67ZM130 549Q109 549 96 562T82 595Q82 614 95 626T130 639Q150 639 163 627T176
595Q176 575 163 562T130 549ZM250 549Q230 549 216 562T202 595Q202 614 216 626T250 639Q270 639 283 627T297 595Q297 575 284 562T250 549Z" />
<glyph unicode="&#xe5;" horiz-adv-x="370" d="M126 -8Q100 -8 78 -1T41 28T26 95V161Q26 208 53 237T140 288Q171 301 189 311T215 335T223 375V402Q223 418 218 426T204 439T182 443Q156 443 148 426T140 367V325H37V378Q37 415 47 443T89 488T182 505Q245 505
279 494T326 458T339 391V0H225V55Q217 26 189 9T126 -8ZM175 67Q202 67 212 87T223 145V272Q217 262 203 255T175 238Q156 225 146 212T136 174V123Q136 102 141 90T155 72T175 67ZM189 541Q152 541 128 565T103 622Q103 657 127 681T189 705Q226 705 251 681T276
622Q276 589 251 565T189 541ZM189 587Q206 587 217 597T228 622Q228 640 217 650T189 660Q173 660 162 650T151 622Q151 607 162 597T189 587Z" />
<glyph unicode="&#xe6;" horiz-adv-x="562" d="M126 -6Q113 -6 96 -4T63 7T37 37T26 97V163Q26 213 56 240T135 286Q167 300 186 309T214 333T223 372V402Q223 418 218 426T204 439T182 443Q156 443 148 426T140 367V325H37V378Q37 415 47 443T89 488T182 505Q236
505 265 491T306 452T317 391V18L248 81Q232 32 198 13T126 -6ZM175 69Q202 69 212 88T223 145V272Q217 262 203 255T174 237Q155 224 146 211T136 175V124Q136 103 141 91T155 74T175 69ZM381 -2Q347 -2 320 2T275 22T248 68T239 152V377Q239 435 274 469T381
504Q460 504 499 477T538 377V242H339V105Q339 84 343 73T356 57T381 52Q397 52 406 57T419 74T423 107V183H538V155Q538 101 528 70T498 23T449 3T381 -2ZM339 294H423V390Q423 419 415 431T381 443Q358 443 349 431T339 390V294Z" />
<glyph unicode="&#xe7;" horiz-adv-x="366" d="M187 -8Q136 -8 101 3T47 48T29 152V370Q29 446 68 475T186 504Q264 504 303 477T342 377V304H227V383Q227 412 219 424T186 437Q162 437 153 425T143 383V115Q143 84 152 72T187 59Q210 59 218 71T227 115V200H342V152Q342
84 324 49T272 3T187 -8ZM179 -161Q160 -161 144 -154T120 -143L134 -107Q141 -112 153 -116T174 -120Q190 -120 198 -113T206 -93Q206 -83 200 -78T183 -72Q177 -72 172 -74T163 -79L131 -62L163 0H206L180 -52L173 -49Q180 -45 189 -43T211 -40Q238 -40 253 -57T269
-94Q269 -122 246 -141T179 -161Z" />
<glyph unicode="&#xe8;" horiz-adv-x="366" d="M188 -8Q136 -8 101 3T47 49T29 154V377Q29 450 68 477T186 504Q264 504 303 477T342 377V242H143V107Q143 77 152 65T187 53Q210 53 218 64T227 107V186H342V155Q342 85 324 50T272 4T188 -8ZM143 294H227V383Q227
412 219 424T186 436Q162 436 153 424T143 383V294ZM167 548L72 648H175L232 548H167Z" />
<glyph unicode="&#xe9;" horiz-adv-x="366" d="M188 -8Q136 -8 101 3T47 49T29 154V377Q29 450 68 477T186 504Q264 504 303 477T342 377V242H143V107Q143 77 152 65T187 53Q210 53 218 64T227 107V186H342V155Q342 85 324 50T272 4T188 -8ZM143 294H227V383Q227
412 219 424T186 436Q162 436 153 424T143 383V294ZM140 548L197 648H300L205 548H140Z" />
<glyph unicode="&#xea;" horiz-adv-x="366" d="M188 -8Q136 -8 101 3T47 49T29 154V377Q29 450 68 477T186 504Q264 504 303 477T342 377V242H143V107Q143 77 152 65T187 53Q210 53 218 64T227 107V186H342V155Q342 85 324 50T272 4T188 -8ZM143 294H227V383Q227
412 219 424T186 436Q162 436 153 424T143 383V294ZM56 546L151 651H215L310 546H235L184 595L133 546H56Z" />
<glyph unicode="&#xeb;" horiz-adv-x="366" d="M188 -8Q136 -8 101 3T47 49T29 154V377Q29 450 68 477T186 504Q264 504 303 477T342 377V242H143V107Q143 77 152 65T187 53Q210 53 218 64T227 107V186H342V155Q342 85 324 50T272 4T188 -8ZM143 294H227V383Q227
412 219 424T186 436Q162 436 153 424T143 383V294ZM124 549Q103 549 90 562T76 595Q76 614 89 626T124 639Q144 639 157 627T170 595Q170 575 157 562T124 549ZM244 549Q224 549 210 562T196 595Q196 614 210 626T244 639Q264 639 277 627T291 595Q291 575 278
562T244 549Z" />
<glyph unicode="&#xec;" horiz-adv-x="189" d="M37 0V495H151V0H37ZM334 548L239 648H342L399 548H334Z" />
<glyph unicode="&#xed;" horiz-adv-x="189" d="M37 0V495H151V0H37ZM51 548L108 648H211L116 548H51Z" />
<glyph unicode="&#xee;" horiz-adv-x="189" d="M37 0V495H151V0H37ZM223 546L318 651H382L477 546H402L351 595L300 546H223Z" />
<glyph unicode="&#xef;" horiz-adv-x="189" d="M37 0V495H151V0H37ZM291 549Q270 549 257 562T243 595Q243 614 256 626T291 639Q311 639 324 627T337 595Q337 575 324 562T291 549ZM411 549Q391 549 377 562T363 595Q363 614 377 626T411 639Q431 639 444 627T458
595Q458 575 445 562T411 549Z" />
<glyph unicode="&#xf0;" horiz-adv-x="373" d="M185 -8Q137 -8 102 3T48 48T29 151V357Q29 428 66 456T172 484Q187 484 202 481T226 470V487Q226 522 217 544T190 577T147 588Q123 588 103 585T59 577V650Q77 654 102 658T167 662Q224 662 258 647T311 598T335
509T342 375V166Q342 94 324 57T271 6T185 -8ZM185 53Q207 53 217 67T227 118V383Q227 393 223 402T210 417T183 423Q161 423 152 411T143 369V103Q143 76 153 65T185 53ZM136 506L110 538L296 691L323 659L136 506Z" />
<glyph unicode="&#xf1;" horiz-adv-x="381" d="M37 0V495H134L144 437Q153 467 179 486T238 505Q286 505 310 489T342 443T351 373V0H237V366Q237 378 236 388T231 407T218 419T194 424Q182 424 173 420T159 409T151 398V0H37ZM237 551Q222 551 209 556T182 570Q172
577 161 582T138 587Q125 587 118 578T109 552H75Q76 591 93 615T139 640Q155 640 169 635T195 621Q206 615 216 610T238 605Q252 605 259 614T269 637H306Q306 609 296 590T269 561T237 551Z" />
<glyph unicode="&#xf2;" horiz-adv-x="371" d="M186 -8Q136 -8 101 4T47 51T29 156V366Q29 443 68 473T186 504Q265 504 303 474T342 366V156Q342 87 325 52T272 5T186 -8ZM186 60Q208 60 218 72T228 118V378Q228 409 219 422T186 436Q164 436 154 423T143 378V118Q143
85 153 73T186 60ZM169 548L74 648H177L234 548H169Z" />
<glyph unicode="&#xf3;" horiz-adv-x="371" d="M186 -8Q136 -8 101 4T47 51T29 156V366Q29 443 68 473T186 504Q265 504 303 474T342 366V156Q342 87 325 52T272 5T186 -8ZM186 60Q208 60 218 72T228 118V378Q228 409 219 422T186 436Q164 436 154 423T143 378V118Q143
85 153 73T186 60ZM142 548L199 648H302L207 548H142Z" />
<glyph unicode="&#xf4;" horiz-adv-x="371" d="M186 -8Q136 -8 101 4T47 51T29 156V366Q29 443 68 473T186 504Q265 504 303 474T342 366V156Q342 87 325 52T272 5T186 -8ZM186 60Q208 60 218 72T228 118V378Q228 409 219 422T186 436Q164 436 154 423T143 378V118Q143
85 153 73T186 60ZM58 546L153 651H217L312 546H237L186 595L135 546H58Z" />
<glyph unicode="&#xf5;" horiz-adv-x="371" d="M186 -8Q136 -8 101 4T47 51T29 156V366Q29 443 68 473T186 504Q265 504 303 474T342 366V156Q342 87 325 52T272 5T186 -8ZM186 60Q208 60 218 72T228 118V378Q228 409 219 422T186 436Q164 436 154 423T143 378V118Q143
85 153 73T186 60ZM232 551Q217 551 204 556T177 570Q167 577 156 582T133 587Q120 587 113 578T104 552H70Q71 591 88 615T134 640Q150 640 164 635T190 621Q201 615 211 610T233 605Q247 605 254 614T264 637H301Q301 609 291 590T264 561T232 551Z" />
<glyph unicode="&#xf6;" horiz-adv-x="371" d="M186 -8Q136 -8 101 4T47 51T29 156V366Q29 443 68 473T186 504Q265 504 303 474T342 366V156Q342 87 325 52T272 5T186 -8ZM186 60Q208 60 218 72T228 118V378Q228 409 219 422T186 436Q164 436 154 423T143 378V118Q143
85 153 73T186 60ZM126 549Q105 549 92 562T78 595Q78 614 91 626T126 639Q146 639 159 627T172 595Q172 575 159 562T126 549ZM246 549Q226 549 212 562T198 595Q198 614 212 626T246 639Q266 639 279 627T293 595Q293 575 280 562T246 549Z" />
<glyph unicode="&#xf7;" horiz-adv-x="387" d="M43 249V326H344V249H43ZM193 71Q170 71 154 85T138 123Q138 145 154 160T193 176Q217 176 233 161T249 123Q249 100 233 86T193 71ZM193 394Q170 394 154 409T138 447Q138 470 154 485T193 500Q216 500 232 485T248
447Q248 425 232 410T193 394Z" />
<glyph unicode="&#xf8;" horiz-adv-x="379" d="M26 -38L303 521H346L68 -38H26ZM186 -8Q132 -8 97 6T46 56T29 156V366Q29 413 45 443T95 488T186 503Q242 503 276 489T326 444T342 366V156Q342 92 326 56T275 6T186 -8ZM186 59Q204 59 213 66T225 87T228 118V378Q228
395 225 408T213 428T186 436Q168 436 159 429T146 408T143 378V118Q143 101 146 88T158 67T186 59Z" />
<glyph unicode="&#xf9;" horiz-adv-x="385" d="M147 -7Q99 -7 75 9T43 55T34 124V495H148V131Q148 116 150 103T162 82T191 74Q204 74 212 78T226 88T233 99V495H347V0H250L241 60Q233 32 208 13T147 -7ZM176 548L81 648H184L241 548H176Z" />
<glyph unicode="&#xfa;" horiz-adv-x="385" d="M147 -7Q99 -7 75 9T43 55T34 124V495H148V131Q148 116 150 103T162 82T191 74Q204 74 212 78T226 88T233 99V495H347V0H250L241 60Q233 32 208 13T147 -7ZM149 548L206 648H309L214 548H149Z" />
<glyph unicode="&#xfb;" horiz-adv-x="385" d="M147 -7Q99 -7 75 9T43 55T34 124V495H148V131Q148 116 150 103T162 82T191 74Q204 74 212 78T226 88T233 99V495H347V0H250L241 60Q233 32 208 13T147 -7ZM65 546L160 651H224L319 546H244L193 595L142 546H65Z" />
<glyph unicode="&#xfc;" horiz-adv-x="385" d="M147 -7Q99 -7 75 9T43 55T34 124V495H148V131Q148 116 150 103T162 82T191 74Q204 74 212 78T226 88T233 99V495H347V0H250L241 60Q233 32 208 13T147 -7ZM133 549Q112 549 99 562T85 595Q85 614 98 626T133 639Q153
639 166 627T179 595Q179 575 166 562T133 549ZM253 549Q233 549 219 562T205 595Q205 614 219 626T253 639Q273 639 286 627T300 595Q300 575 287 562T253 549Z" />
<glyph unicode="&#xfd;" horiz-adv-x="349" d="M100 -117Q72 -117 46 -113T5 -104V-44Q11 -46 22 -48T47 -50Q60 -50 76 -46T99 -20Q101 -11 103 -1T103 23L2 495H120L180 109H181L241 495H349L253 43Q236 -42 199 -79T100 -117ZM131 548L188 648H291L196 548H131Z" />
<glyph unicode="&#xfe;" horiz-adv-x="380" d="M37 -116V630H151V457Q165 479 183 491T237 503Q272 503 297 492T336 456T350 386V145Q350 90 338 57T301 9T237 -6Q203 -6 183 5T150 39L151 -116H37ZM194 58Q209 58 217 62T229 74T235 93T236 117V374Q236 387
235 397T230 415T217 427T193 431Q178 431 169 424T156 404T151 376V126Q151 112 152 100T157 79T170 64T194 58Z" />
<glyph unicode="&#xff;" horiz-adv-x="349" d="M100 -117Q72 -117 46 -113T5 -104V-44Q11 -46 22 -48T47 -50Q60 -50 76 -46T99 -20Q101 -11 103 -1T103 23L2 495H120L180 109H181L241 495H349L253 43Q236 -42 199 -79T100 -117ZM115 549Q94 549 81 562T67 595Q67
614 80 626T115 639Q135 639 148 627T161 595Q161 575 148 562T115 549ZM235 549Q215 549 201 562T187 595Q187 614 201 626T235 639Q255 639 268 627T282 595Q282 575 269 562T235 549Z" />
<glyph unicode="&#x2013;" horiz-adv-x="427" d="M27 240V317H401V240H27Z" />
<glyph unicode="&#x2014;" horiz-adv-x="653" d="M27 240V317H626V240H27Z" />
<glyph unicode="&#x2018;" horiz-adv-x="201" d="M105 625H167L129 416H33L105 625Z" />
<glyph unicode="&#x2019;" horiz-adv-x="207" d="M98 421H36L74 630H171L98 421Z" />
<glyph unicode="&#x201a;" horiz-adv-x="195" d="M51 -147Q66 -114 77 -87T89 -37Q89 -18 81 -7T63 14T54 43Q54 65 71 81T115 98Q141 98 157 81T173 37Q173 10 162 -23T135 -89T101 -147H51Z" />
<glyph unicode="&#x201c;" horiz-adv-x="341" d="M246 625H308L270 416H174L246 625ZM105 625H167L129 416H33L105 625Z" />
<glyph unicode="&#x201d;" horiz-adv-x="341" d="M96 416H33L71 625H168L96 416ZM236 416H174L212 625H308L236 416Z" />
<glyph unicode="&#x201e;" horiz-adv-x="277" d="M96 -147H33L71 62H168L96 -147ZM255 -147H193L231 62H327L255 -147Z" />
<glyph unicode="&#x2022;" horiz-adv-x="371" d="M186 143Q148 143 117 161T68 211T49 280Q49 318 67 348T117 397T186 416Q224 416 254 398T303 349T322 280Q322 242 304 211T255 162T186 143Z" />
<glyph unicode="&#x2039;" horiz-adv-x="309" d="M167 103L36 292L170 485H273L140 292L270 103H167Z" />
<glyph unicode="&#x203a;" horiz-adv-x="309" d="M39 103L169 292L36 485H139L273 292L142 103H39Z" />
</font>
</defs>
</svg>
